<?xml version="1.0" encoding="UTF-8"?>
<svg width="148px" height="148px" viewBox="0 0 148 148" version="1.1" xmlns="http://www.w3.org/2000/svg" xmlns:xlink="http://www.w3.org/1999/xlink">
    <!-- Generator: Sketch 56.3 (81716) - https://sketch.com -->
    <title>logo</title>
    <desc>Created with Sketch.</desc>
    <g id="logo" stroke="none" stroke-width="1" fill="none" fill-rule="evenodd">
        <g id="Group" transform="translate(25.000000, 0.000000)" fill-rule="nonzero">
            <g transform="translate(3.636364, 33.533582)" id="Path">
                <g transform="translate(7.727273, 7.703661)" fill="#F28F2A">
                    <path d="M12.3181818,50.572267 C7.86363636,49.9378479 3.68181818,46.4032271 1.54545455,41.3278741 C-0.545454545,36.2525212 -0.681818182,28.9113856 4.40909091,22.2046692 C4.40909091,22.2953005 4.40909091,22.3406162 4.45454545,22.4312475 L4.45454545,22.4312475 C4.5,22.8390883 4.59090909,23.2922449 4.68181818,23.7454014 L4.68181818,23.7454014 C4.72727273,24.1079266 4.81818182,24.4251361 4.86363636,24.7876614 C4.27272727,25.73929 3.77272727,26.6909187 3.36363636,27.6425474 C3.22727273,27.959757 3.13636364,28.2316509 3,28.5488604 C2.95454545,28.6848074 2.90909091,28.8207543 2.86363636,29.0020169 C2.77272727,29.2739109 2.68181818,29.5458048 2.63636364,29.8176987 C2.59090909,29.9536456 2.54545455,30.0895926 2.54545455,30.2255395 C2.5,30.3161708 2.5,30.4521178 2.45454545,30.5427491 C2.40909091,30.7240117 2.36363636,30.9052743 2.31818182,31.0865369 C2.27272727,31.2677995 2.27272727,31.4037465 2.22727273,31.5850091 C2.22727273,31.6303247 2.22727273,31.6756404 2.22727273,31.720956 C2.18181818,31.9022186 2.18181818,32.0834812 2.13636364,32.2647438 C2.13636364,32.3100595 2.13636364,32.3553752 2.13636364,32.4006908 C2.13636364,32.5819534 2.09090909,32.7179004 2.09090909,32.899163 C2.09090909,32.9444786 2.09090909,32.9897943 2.09090909,33.0804256 C2.09090909,33.3070038 2.04545455,33.4882664 2.04545455,33.7148447 C2.04545455,33.941423 2.04545455,34.1680012 2.04545455,34.3492638 C2.04545455,36.4790994 2.45454545,38.6542507 3.31818182,40.693455 C4.68181818,44.0468132 7.04545455,46.6298054 9.77272727,47.9439593 L9.77272727,47.9439593 C10.1818182,48.4424314 10.5909091,48.9409036 11.0454545,49.4393758 C11.4545455,49.801901 11.8636364,50.2097418 12.3181818,50.572267 Z"></path>
                    <path d="M70.4090909,51.4332644 C70.4090909,51.3879488 70.4090909,51.2973175 70.3636364,51.2520018 L70.3636364,51.2520018 C70.3181818,50.7988453 70.2272727,50.3910044 70.1363636,49.9378479 L70.1363636,49.9378479 C70.0909091,49.5753227 70,49.2127975 69.9090909,48.8502723 L69.9090909,48.8502723 C70.0454545,48.623694 70.1818182,48.3971158 70.3181818,48.1705375 C70.4090909,47.9892749 70.5454545,47.7626967 70.6363636,47.581434 C70.7272727,47.3548558 70.8636364,47.1735932 70.9545455,46.9470149 C71.0454545,46.7204367 71.1363636,46.5391741 71.2272727,46.3125958 C71.3181818,46.1313332 71.3636364,45.9500706 71.4545455,45.8141236 C71.4545455,45.768808 71.5,45.7234923 71.5,45.6781767 C71.5909091,45.4515984 71.6363636,45.2703358 71.7272727,45.0437576 C71.8181818,44.8171793 71.8636364,44.6359167 71.9545455,44.4093384 C72,44.1827602 72.0909091,43.9561819 72.1363636,43.7749193 L72.1363636,43.7749193 C72.1818182,43.5936567 72.2272727,43.3670785 72.2727273,43.1858159 C72.2727273,43.1405002 72.2727273,43.1405002 72.2727273,43.0951846 C72.3181818,42.8686063 72.3636364,42.6873437 72.3636364,42.4607654 C72.4090909,42.2341872 72.4545455,42.0076089 72.4545455,41.7810307 C72.5,41.5997681 72.5,41.4185054 72.5454545,41.1919272 C72.5909091,40.9200333 72.5909091,40.6028237 72.5909091,40.3309298 C72.5909091,40.1496672 72.5909091,39.9684046 72.5909091,39.787142 C72.5909091,39.5152481 72.5909091,39.2433542 72.5909091,38.9714603 C72.5454545,38.4276724 72.5,37.9292003 72.4545455,37.3854125 C72.3636364,36.8416246 72.2727273,36.3431525 72.1363636,35.7993647 C72.0909091,35.5727864 72,35.3462081 71.9545455,35.1196299 C71.9545455,35.0289986 71.9090909,34.9836829 71.9090909,34.9383673 C71.8636364,34.711789 71.7727273,34.4852108 71.6818182,34.3039482 C71.6818182,34.2586325 71.6363636,34.2133169 71.6363636,34.1680012 C71.5454545,33.941423 71.4545455,33.7148447 71.3636364,33.4882664 C71.2727273,33.3070038 71.2272727,33.1257412 71.1363636,32.9444786 C70.9090909,32.4006908 70.6363636,31.9022186 70.3636364,31.4490621 C70.2727273,31.3131152 70.1818182,31.1318526 70.0909091,30.9959056 C70,30.814643 69.8636364,30.678696 69.7727273,30.4974334 C69.6818182,30.3614865 69.5909091,30.2255395 69.4545455,30.0895926 C69.3636364,29.9536456 69.2272727,29.8176987 69.1363636,29.6817517 C69.0454545,29.5458048 68.9090909,29.4098578 68.7727273,29.2739109 C68.6818182,29.1379639 68.5454545,29.0473326 68.4545455,28.9113856 C68.3636364,28.8207543 68.3181818,28.730123 68.2272727,28.6394917 C68.1363636,28.5488604 68.0909091,28.5035448 68,28.4129135 C67.9090909,28.3222822 67.8181818,28.2316509 67.7272727,28.1410196 C67.6363636,28.0503883 67.5454545,27.959757 67.4545455,27.9144413 C67.2727273,27.7784944 67.0909091,27.5972317 66.9090909,27.4612848 C66.7727273,27.3706535 66.6363636,27.2347065 66.5,27.1440752 C66.3636364,27.0534439 66.2272727,26.9628126 66.0909091,26.8721813 C65.6818182,26.2377622 65.1818182,25.6939744 64.6818182,25.1048709 C64.6818182,25.1048709 64.6818182,25.1048709 64.6818182,25.1048709 C64.2272727,24.6063987 63.7727273,24.1532422 63.2727273,23.7000857 C67.3636364,24.6517144 71.1363636,28.0503883 73.0909091,32.763216 C75.0909091,37.6573064 75.2272727,44.8171793 70.4090909,51.4332644 Z"></path>
                    <path d="M51.9090909,4.07840863 C51.4545455,4.12372428 51.0454545,4.21435559 50.5909091,4.30498689 L50.5909091,4.30498689 C50.1818182,4.39561819 49.7272727,4.44093384 49.3181818,4.53156515 C49.1363636,4.39561819 48.9545455,4.30498689 48.7727273,4.21435559 C48.5909091,4.12372428 48.4090909,3.98777733 48.2272727,3.89714603 C48.0454545,3.80651472 47.8636364,3.71588342 47.6818182,3.62525212 C47.3181818,3.44398951 46.9090909,3.26272691 46.5454545,3.12677995 C46.1818182,2.94551735 45.7727273,2.80957039 45.3636364,2.71893909 C45.2272727,2.67362344 45.0909091,2.62830779 44.9545455,2.58299213 C44.6818182,2.49236083 44.4545455,2.44704518 44.1818182,2.35641388 C44.0454545,2.31109823 43.8636364,2.26578257 43.7272727,2.26578257 C43.6818182,2.26578257 43.5909091,2.22046692 43.5454545,2.22046692 C43.3636364,2.17515127 43.2272727,2.12983562 43.0454545,2.12983562 C43.0454545,2.12983562 43.0454545,2.12983562 43,2.12983562 C42.8181818,2.08451997 42.5909091,2.03920432 42.4090909,2.03920432 C42.2272727,1.99388866 42.0909091,1.99388866 41.9090909,1.99388866 C41.8181818,1.99388866 41.6818182,1.94857301 41.5909091,1.94857301 C41.5,1.94857301 41.3636364,1.90325736 41.2727273,1.90325736 C41.0909091,1.90325736 40.9090909,1.85794171 40.7272727,1.85794171 C40.5,1.85794171 40.3181818,1.85794171 40.0909091,1.85794171 C37.9545455,1.85794171 35.7727273,2.26578257 33.6818182,3.12677995 C30.4090909,4.4862495 27.8636364,6.75203207 26.5454545,9.3350242 C26,9.74286507 25.4545455,10.2413372 25,10.7398094 C24.5454545,11.1929659 24.1363636,11.6461224 23.7727273,12.1445946 C24.4090909,7.70366075 27.9545455,3.53462081 33.0454545,1.45010085 C38,-0.679734772 45.2727273,-0.815681727 51.9090909,4.07840863 Z"></path>
                    <path d="M50.8181818,62.5809147 C49.9545455,66.7952703 46.5,70.6471006 41.6818182,72.6409893 C39.6363636,73.456671 37.2272727,74.0004589 34.6818182,74.0004589 C30.8636364,74.0004589 26.6818182,72.8675676 22.6818182,69.9220502 C22.7272727,69.9220502 22.7727273,69.9220502 22.8181818,69.9220502 L22.8181818,69.9220502 C23.2727273,69.8767346 23.6818182,69.7861033 24.1363636,69.695472 L24.1363636,69.695472 C24.5,69.6501563 24.8636364,69.559525 25.2727273,69.4688937 C25.2727273,69.4688937 25.2727273,69.4688937 25.2727273,69.4688937 C25.4545455,69.6048407 25.6363636,69.695472 25.8181818,69.7861033 C25.9545455,69.8767346 26.1363636,69.9673659 26.2727273,70.0579972 C26.3181818,70.1033128 26.4090909,70.1033128 26.4545455,70.1486285 C26.5909091,70.2392598 26.7727273,70.3298911 26.9090909,70.3752067 C27.0909091,70.465838 27.2727273,70.5564693 27.5,70.6471006 C27.6818182,70.7377319 27.8636364,70.8283633 28.0909091,70.8736789 C28.8636364,71.1908885 29.6363636,71.4627824 30.4545455,71.644045 C30.6363636,71.6893606 30.8181818,71.7346763 31,71.7799919 C31,71.7799919 31.0454545,71.7799919 31.0454545,71.7799919 C31.1818182,71.8253076 31.3181818,71.8253076 31.4545455,71.8706232 C31.5454545,71.8706232 31.6363636,71.9159389 31.7272727,71.9159389 C31.8636364,71.9612545 31.9545455,71.9612545 32.0909091,71.9612545 C32.2727273,72.0065702 32.4545455,72.0065702 32.6363636,72.0518858 C32.7727273,72.0518858 32.9090909,72.0972015 33.0909091,72.0972015 C33.3636364,72.1425171 33.6363636,72.1425171 33.9090909,72.1425171 C34.1363636,72.1425171 34.3636364,72.1425171 34.5909091,72.1425171 C36.7272727,72.1425171 38.8636364,71.7346763 40.9545455,70.8736789 C44.0454545,69.6048407 46.4545455,67.5203207 47.8636364,65.1185912 C48.4545455,64.7107503 49,64.2575938 49.5,63.8044373 C49.9545455,63.4419121 50.4090909,63.0340712 50.8181818,62.5809147 Z"></path>
                </g>
                <g fill="#F18943">
                    <path d="M68.5,11.6461224 C68.4545455,11.6461224 68.4090909,11.6461224 68.3636364,11.6461224 C68,11.6008068 67.6363636,11.5554911 67.2727273,11.5554911 C66.2727273,10.1960216 65.0909091,8.97249899 63.8181818,7.88492336 C61.3181818,5.75508774 58.4545455,4.12372428 55.3181818,3.03614865 C49.1363636,0.906313029 42.1363636,1.13289129 36.1363636,3.48930516 C33.1363636,4.6675121 30.2727273,6.43482251 28,8.60997378 C25.6363636,10.7851251 23.7272727,13.4587485 22.4090909,16.4042658 C21.0454545,19.3497832 20.2727273,22.4765631 20,25.6939744 C19.8636364,27.5066004 19.8636364,29.3192265 19.9545455,31.1318526 C19.1363636,31.856903 18.4090909,32.6272691 17.7272727,33.4429508 C17.6363636,33.5335821 17.5454545,33.669529 17.4545455,33.7601603 C17.4545455,33.669529 17.4545455,33.5788977 17.4545455,33.4882664 C17.4090909,32.9444786 17.3636364,32.4460065 17.3636364,31.9022186 C17.3636364,31.856903 17.3636364,31.8115873 17.3636364,31.8115873 C17.2727273,29.7270674 17.3181818,27.5972317 17.5454545,25.4673961 C17.9545455,21.978091 18.8636364,18.6247328 20.3636364,15.4526372 C21.9090909,12.3258572 24.0454545,9.42565551 26.6363636,7.15987293 C29.2272727,4.84877471 32.3181818,3.03614865 35.5454545,1.85794171 C42.0454545,-0.498472166 49.3636364,-0.498472166 55.8181818,1.85794171 C59.0454545,3.03614865 62.0909091,4.80345906 64.6363636,7.11455728 C66.0454545,8.47402683 67.3636364,10.014759 68.5,11.6461224 Z"></path>
                    <path d="M88,55.3757261 C86.8181818,58.5931374 85.0454545,61.629286 82.7272727,64.1669625 C81.3636364,65.662379 79.8636364,66.9765329 78.1818182,68.1094242 C78.1818182,67.9734772 78.2272727,67.8375303 78.2272727,67.7015833 C78.2727273,67.4296894 78.2727273,67.1577955 78.3181818,66.8859016 C79.6363636,65.8889572 80.8636364,64.756066 81.9545455,63.4872277 C84.0909091,60.9948669 85.7272727,58.1399808 86.8181818,55.0132009 C88.9545455,48.8502723 88.7272727,41.871662 86.3636364,35.889996 C85.1818182,32.899163 83.4090909,30.0442769 81.2272727,27.7784944 C79.0454545,25.4220805 76.3636364,23.5188231 73.4090909,22.2046692 C70.4545455,20.8451997 67.3181818,20.0748336 64.0909091,19.8029397 C62.4545455,19.6669927 60.7727273,19.6669927 59.1363636,19.757624 C58.5454545,19.0325736 57.9090909,18.3528388 57.2272727,17.7637354 C57.0909091,17.6277884 56.9545455,17.5371571 56.8181818,17.4012102 C56.7272727,17.3558945 56.6818182,17.3105789 56.5909091,17.2199476 C57,17.1746319 57.4090909,17.1746319 57.7727273,17.1293163 C57.8181818,17.1293163 57.8636364,17.1293163 57.9090909,17.1293163 C60.0454545,17.038685 62.1363636,17.0840006 64.2727273,17.3105789 C67.7727273,17.7184197 71.1363636,18.6247328 74.3181818,20.1201493 C77.4545455,21.6608814 80.3636364,23.790717 82.6363636,26.3737092 C84.9545455,28.9567013 86.7727273,32.0381656 87.9545455,35.2555768 C90.3636364,41.6450837 90.3636364,48.9409036 88,55.3757261 Z"></path>
                    <path d="M72.5909091,63.8950686 C72.1818182,67.3843737 71.2727273,70.7377319 69.7727273,73.9098276 C68.2272727,77.0366075 66.0909091,79.9368092 63.5,82.2025918 C60.9090909,84.51369 57.8181818,86.3263161 54.5909091,87.504523 C48.0909091,89.8609369 40.7727273,89.8609369 34.3181818,87.504523 C31.0909091,86.3263161 28.0454545,84.5590056 25.5,82.2479074 C24,80.8884379 22.6363636,79.3023901 21.5,77.625711 C21.5909091,77.625711 21.6818182,77.6710266 21.7727273,77.6710266 C22.0909091,77.7163423 22.4090909,77.7616579 22.7272727,77.7616579 C23.7727273,79.1211275 24.9090909,80.3899657 26.2272727,81.522857 C28.7272727,83.6526926 31.5909091,85.2840561 34.7272727,86.3716317 C40.9090909,88.5014673 47.9090909,88.2748891 53.9545455,85.9184752 C56.9545455,84.7402683 59.8181818,82.9729578 62.0909091,80.7978066 C64.4545455,78.6226553 66.3636364,75.9490319 67.6818182,73.0035145 C69.0454545,70.0579972 69.8181818,66.9312172 70.0909091,63.713806 C70.2272727,61.9918112 70.2272727,60.2698165 70.1363636,58.5478217 C70.8181818,58.0040339 71.4545455,57.4149304 72.0909091,56.7805113 C72.2272727,56.6445643 72.3636364,56.5086174 72.4545455,56.3726704 C72.5,56.2820391 72.5909091,56.2367235 72.6363636,56.1460922 C72.6818182,56.5992487 72.6818182,57.0524052 72.7272727,57.4602461 C72.7272727,57.5055617 72.7272727,57.5508774 72.7272727,57.5508774 C72.8636364,59.680713 72.8181818,61.765233 72.5909091,63.8950686 Z"></path>
                    <path d="M34.1363636,72.2331484 C34.0454545,72.2331484 33.9090909,72.2331484 33.8181818,72.2784641 C33.3181818,72.3237797 32.7727273,72.3690954 32.2727273,72.3690954 C32.2272727,72.3690954 32.1818182,72.3690954 32.1363636,72.3690954 C30.0454545,72.4597267 27.9090909,72.4144111 25.7727273,72.1878328 C22.2727273,71.7799919 18.9090909,70.8736789 15.7272727,69.3782624 C12.5909091,67.8375303 9.68181818,65.7076946 7.40909091,63.1247025 C5.13636364,60.5417104 3.27272727,57.4602461 2.09090909,54.2428348 C-0.272727273,47.7626967 -0.272727273,40.4668768 2.09090909,34.0320543 C3.27272727,30.814643 5.04545455,27.7784944 7.36363636,25.2408179 C8.77272727,23.7000857 10.4090909,22.2953005 12.1363636,21.1624092 C12.1363636,21.2530405 12.0909091,21.3436718 12.0909091,21.4343031 C12.0454545,21.7515127 12,22.0687223 12,22.3859318 C10.5454545,23.4281918 9.27272727,24.6517144 8.09090909,25.9658683 C5.95454545,28.4582291 4.31818182,31.3131152 3.22727273,34.4398951 C1.09090909,40.6028237 1.31818182,47.581434 3.68181818,53.5631 C4.86363636,56.553933 6.63636364,59.4088191 8.81818182,61.6746017 C11,64.0310155 13.6818182,65.9342729 16.5909091,67.2484268 C19.5454545,68.6078963 22.6818182,69.3782624 25.9090909,69.6501563 C27.7727273,69.7861033 29.6363636,69.7861033 31.5,69.695472 C32.1818182,70.5111537 32.9090909,71.2362041 33.7272727,71.9159389 L33.7272727,71.9159389 C33.9090909,72.0518858 34,72.1425171 34.1363636,72.2331484 Z"></path>
                </g>
                <g transform="translate(3.636364, 3.625252)" fill="#FBC366">
                    <path d="M25.9090909,63.0793868 C23.6818182,62.8981242 21.4545455,62.535599 19.2272727,61.9918112 C16.6363636,61.2667608 14.0909091,60.2698165 11.7727273,58.9103469 C9.45454545,57.5508774 7.31818182,55.783567 5.59090909,53.7443626 C3.86363636,51.6598427 2.5,49.3034288 1.63636364,46.811068 C-0.136363636,41.735715 -0.0909090909,36.0712586 1.81818182,31.1318526 C2.77272727,28.6394917 4.22727273,26.3737092 6,24.4251361 C6.68181818,23.7000857 7.45454545,23.0203509 8.22727273,22.3859318 C8.22727273,22.5218788 8.22727273,22.6578257 8.22727273,22.7937727 L8.22727273,22.7937727 C8.22727273,22.884404 8.22727273,22.9297196 8.22727273,23.0203509 C7.86363636,23.3375605 7.5,23.6547701 7.13636364,24.0172953 C7.04545455,24.1079266 6.95454545,24.1532422 6.90909091,24.2438735 C6.72727273,24.4251361 6.59090909,24.5610831 6.40909091,24.7423457 C4.68181818,26.6456031 3.40909091,28.9113856 2.54545455,31.2677995 C0.818181818,36.1165742 0.954545455,41.4638211 2.77272727,46.1766489 C3.63636364,48.5330627 5,50.708214 6.68181818,52.6114714 C8.31818182,54.5147287 10.3636364,56.0101452 12.5909091,57.2789835 C14.7727273,58.5025061 17.1818182,59.3635034 19.6363636,59.9526069 C19.9545455,60.0432382 20.2272727,60.0885539 20.5454545,60.1338695 C20.5454545,60.1338695 20.5909091,60.1338695 20.5909091,60.1338695 C20.8181818,60.1791852 21.0909091,60.2245008 21.3636364,60.2698165 C21.4090909,60.2698165 21.4545455,60.3151321 21.5454545,60.3151321 C21.8636364,60.3604478 22.1818182,60.4057634 22.5,60.4510791 C22.5,60.4510791 22.5,60.4510791 22.5454545,60.4510791 C22.8181818,60.4963947 23.0454545,60.5417104 23.3181818,60.5417104 C23.6363636,60.587026 23.9545455,60.6323417 24.2727273,60.6323417 L24.2727273,60.6323417 C24.8636364,61.4480234 25.4545455,62.2637051 25.9090909,63.0793868 Z"></path>
                    <path d="M81,50.9801079 C80.0454545,53.4724687 78.5909091,55.7382513 76.8181818,57.6868243 C76.1818182,58.3665591 75.5454545,58.9556626 74.8181818,59.4994504 C74.8181818,59.3181878 74.8181818,59.1369252 74.8181818,58.9556626 L74.8181818,58.9556626 C74.8181818,58.9103469 74.8181818,58.8650313 74.8181818,58.8197156 C75.3636364,58.3665591 75.8636364,57.8227713 76.3636364,57.3242991 C78.0909091,55.4210418 79.3636364,53.1552592 80.1818182,50.7988453 C81.9090909,45.9500706 81.7727273,40.6028237 79.9545455,35.889996 C79.0909091,33.5335821 77.7272727,31.3584308 76.0454545,29.4551735 C74.4090909,27.5519161 72.3636364,26.0564996 70.1363636,24.7876614 C67.9545455,23.5641388 65.5454545,22.7031414 63.0909091,22.1140379 C61.8181818,21.7968284 60.5454545,21.6155658 59.2727273,21.4796188 C58.6363636,20.7092527 58.0454545,19.893571 57.5454545,19.0325736 C59.5454545,19.2591519 61.5454545,19.5763614 63.5454545,20.029518 C66.1363636,20.7545684 68.6818182,21.7515127 71,23.1109823 C73.3181818,24.4704518 75.4090909,26.2377622 77.1818182,28.2769665 C78.9090909,30.3614865 80.2727273,32.7179004 81.1363636,35.2102612 C82.9545455,40.3762455 82.8636364,46.0407019 81,50.9801079 Z"></path>
                    <path d="M63.4545455,56.9164582 C63.2727273,59.0009782 62.9090909,61.0854982 62.4090909,63.1700182 C61.6818182,65.7530103 60.6818182,68.2906868 59.3181818,70.601785 C57.9545455,72.9128832 56.1818182,75.0427188 54.1363636,76.7647136 C52.0454545,78.4867084 49.6818182,79.8461779 47.1818182,80.7071753 C42.0909091,82.4744857 36.4090909,82.42917 31.4545455,80.5259127 C28.9545455,79.574284 26.6818182,78.1241831 24.7272727,76.3568727 C24.0454545,75.677138 23.3636364,74.9974032 22.7727273,74.2270371 C22.9090909,74.2270371 23.0454545,74.2270371 23.1818182,74.2270371 L23.1818182,74.2270371 C23.2727273,74.2270371 23.3636364,74.2270371 23.4090909,74.2270371 C23.5,74.3176684 23.5454545,74.4082997 23.6363636,74.4536154 C23.6818182,74.498931 23.7272727,74.5442467 23.8181818,74.634878 C24,74.8161406 24.1818182,75.0427188 24.3636364,75.2239814 C24.5909091,75.4505597 24.8181818,75.677138 25.0454545,75.9037162 C26.9545455,77.625711 29.2272727,78.8945492 31.5909091,79.7555466 C36.4545455,81.4775413 41.8181818,81.3415944 46.5454545,79.5289683 C48.9090909,78.667971 51.0909091,77.3085014 53,75.6318223 C54.9090909,74.0004589 56.4090909,71.9612545 57.6818182,69.7407876 C58.9090909,67.5656363 59.7727273,65.1639068 60.3181818,62.7168616 C60.3636364,62.535599 60.4090909,62.3996521 60.4090909,62.2183895 C60.4545455,62.0371269 60.5,61.9011799 60.5,61.7199173 C60.5454545,61.4480234 60.5909091,61.1308138 60.6818182,60.8589199 C60.7272727,60.6323417 60.7727273,60.3604478 60.7727273,60.1338695 C60.8181818,59.9979225 60.8181818,59.8619756 60.8181818,59.680713 C60.8181818,59.680713 60.8181818,59.680713 60.8181818,59.680713 C60.8636364,59.3635034 60.9090909,59.0009782 60.9545455,58.6837687 C61.7727273,58.0040339 62.5909091,57.4149304 63.4545455,56.9164582 Z"></path>
                    <path d="M59.9545455,7.8396077 C59.8636364,7.8396077 59.7727273,7.8396077 59.6818182,7.8396077 L59.6818182,7.8396077 C59.5454545,7.8396077 59.4090909,7.8396077 59.2727273,7.8396077 C59.1818182,7.7489764 59.1363636,7.6583451 59.0454545,7.5677138 C58.8181818,7.34113554 58.5909091,7.11455728 58.3636364,6.88797902 C58.1363636,6.66140077 57.9090909,6.43482251 57.6818182,6.20824425 C55.7727273,4.4862495 53.5,3.21741125 51.1363636,2.35641388 C46.2727273,0.634419121 40.9090909,0.770366075 36.1818182,2.58299213 C33.8181818,3.44398951 31.6363636,4.80345906 29.7272727,6.48013816 C27.8181818,8.11150161 26.3181818,10.1507059 25.0454545,12.3711729 C23.8181818,14.5463241 23,16.9480537 22.4090909,19.3950988 C22.3636364,19.6216771 22.3181818,19.8482553 22.2727273,20.0748336 C22.2272727,20.2107806 22.2272727,20.3014119 22.1818182,20.4373588 C22.0909091,20.935831 22,21.3889875 21.9545455,21.8874597 C21.9090909,22.0687223 21.9090909,22.2499849 21.8636364,22.4312475 C21.8636364,22.5671944 21.8181818,22.7031414 21.8181818,22.8390883 C21.7727273,23.1562979 21.7272727,23.5188231 21.7272727,23.8360327 C21,24.3798205 20.2272727,24.9236083 19.4090909,25.3314492 C19.3636364,25.3314492 19.3181818,25.3767648 19.3181818,25.3767648 C19.5,23.2469292 19.8636364,21.0717779 20.3636364,18.9419423 C21.0909091,16.3589502 22.0909091,13.8212737 23.4545455,11.5101755 C24.8181818,9.19907725 26.5909091,7.06924163 28.6363636,5.34724687 C30.6818182,3.62525212 33.0454545,2.26578257 35.5909091,1.4047852 C40.6818182,-0.362525212 46.3181818,-0.31720956 51.3181818,1.5860478 C53.8181818,2.53767648 56.0909091,3.98777733 58.0454545,5.75508774 C58.7272727,6.43482251 59.4090909,7.11455728 59.9545455,7.8396077 Z"></path>
                </g>
            </g>
            <g fill="#1E6063">
                <path d="M82.3181818,52.0676835 C82.2727273,52.0676835 82.2727273,52.0676835 82.3181818,52.0676835 C82.1363636,51.9770522 82,51.8864209 81.9090909,51.7957896 C81.7727273,51.7051583 81.6818182,51.6598427 81.5454545,51.5692114 C81.3636364,51.4785801 81.1818182,51.3879488 81,51.2520018 C80.8636364,51.1613705 80.7272727,51.1160549 80.5909091,51.0254236 C80.4545455,50.9347923 80.3181818,50.844161 80.1818182,50.7535296 C79.8636364,50.572267 79.5909091,50.3456888 79.3181818,50.1191105 C79.1363636,49.9831636 78.9545455,49.8472166 78.7727273,49.7112697 C78.5909091,49.5753227 78.4090909,49.4393758 78.2727273,49.2581132 C77.5,48.5330627 76.8181818,47.7626967 76.2272727,46.8563836 C76.1363636,46.7657523 76.0909091,46.6298054 76,46.5391741 C75.9545455,46.4485428 75.9090909,46.4032271 75.8636364,46.3125958 C75.7727273,46.1766489 75.6818182,46.0407019 75.6363636,45.9047549 C71.9545455,39.1527229 65.8636364,34.0773699 58.6818182,31.6303247 C55.5,30.5427491 52.1363636,29.9536456 48.6818182,29.9536456 C37.7727273,29.9536456 27.8181818,35.754049 22.3636364,44.862495 C22.3636364,44.862495 22.3636364,44.862495 22.3636364,44.862495 C22.1363636,45.2250202 21.9545455,45.5422297 21.7727273,45.9047549 C21.4090909,46.5391741 21.0454545,47.1282775 20.5909091,47.6720653 C20.5,47.8080123 20.4090909,47.9439593 20.2727273,48.0345906 C20.2272727,48.1252219 20.1818182,48.1705375 20.0909091,48.2611688 C19.0454545,49.4846914 17.7727273,50.4816357 16.3636364,51.2520018 C16.2727273,51.2973175 16.1818182,51.3426331 16.1363636,51.3879488 C6.45454545,56.7351956 0.318181818,66.8859016 0.318181818,78.1694988 C0.318181818,88.9999395 6.09090909,98.8334359 15.0454545,104.31663 C15.0454545,104.31663 15.0454545,104.31663 15.0454545,104.31663 C15.2272727,104.407261 15.3636364,104.497892 15.5454545,104.633839 C16,104.860418 16.4545455,105.132311 16.8636364,105.35889 C17.2727273,105.630784 17.7272727,105.902677 18.0909091,106.219887 C19,106.899622 19.8181818,107.715304 20.5,108.621617 C20.7272727,108.938826 20.9545455,109.256036 21.1818182,109.573245 C21.4090909,109.93577 21.6363636,110.298296 21.8181818,110.660821 C27.1818182,120.267739 37.3636364,126.430668 48.6363636,126.430668 C59.5909091,126.430668 69.5454545,120.584949 75,111.476503 C75,111.476503 75,111.431187 75.0454545,111.431187 C75.2272727,111.113977 75.4090909,110.796768 75.5909091,110.479558 C76.0454545,109.663877 76.5909091,108.89351 77.1818182,108.213776 C77.2727273,108.077829 77.4090909,107.941882 77.5454545,107.805935 C77.5454545,107.805935 77.5909091,107.760619 77.5909091,107.760619 C77.6363636,107.715304 77.6818182,107.624672 77.7727273,107.579357 C77.8181818,107.534041 77.8636364,107.44341 77.9545455,107.398094 C78,107.352778 78,107.352778 78.0454545,107.307463 C78.1363636,107.216831 78.2272727,107.1262 78.3181818,107.035569 C79.1363636,106.265203 80.0454545,105.585468 81.0454545,105.086996 C81.1363636,105.04168 81.1818182,104.996364 81.2727273,104.951049 C90.9545455,99.6038019 97.1363636,89.453096 97.1363636,78.1694988 C97.0909091,67.4296894 91.3636364,57.5508774 82.3181818,52.0676835 Z M78.8181818,85.8278439 C78.8181818,85.8278439 78.8181818,85.8278439 78.8181818,85.8278439 C77.2272727,89.1358864 74.5909091,91.9454568 71.2272727,93.8033985 C68.4545455,95.3441307 66.1363636,97.5645976 64.5909091,100.419484 C63.9545455,101.552375 63.2272727,102.639951 62.3636364,103.591579 C61.4090909,104.679155 60.3636364,105.630784 59.1818182,106.446465 L59.1818182,106.446465 C59.1363636,106.491781 59.0454545,106.537097 59,106.582412 C56.0909091,108.576301 52.5909091,109.709192 48.9090909,109.709192 C46.4545455,109.709192 44.0909091,109.21072 41.9545455,108.304407 C38.3181818,106.763675 35.2272727,104.044736 33.2727273,100.464799 C31.7272727,97.7005446 29.4545455,95.3894463 26.6363636,93.8487142 C25.7272727,93.350242 24.8636364,92.7611386 24.0454545,92.1720351 C24.0454545,92.1720351 24.0454545,92.1720351 24.0454545,92.1720351 C22.8636364,91.2657221 21.8636364,90.2234621 21,89.0452551 C21,89.0452551 21,89.0452551 21,89.0452551 C20.7272727,88.6374143 20.4090909,88.2748891 20.1818182,87.8670482 C19.4090909,86.6435256 18.7727273,85.3293717 18.3181818,83.9699022 C17.6818182,82.1572761 17.3636364,80.2087031 17.3636364,78.2148144 C17.3636364,75.9490319 17.8181818,73.7285649 18.5909091,71.6893606 C20.0909091,67.8375303 22.9545455,64.5748033 26.6818182,62.535599 C29.4545455,60.9948669 31.7727273,58.7744 33.3181818,55.9195139 C33.7272727,55.1491478 34.2272727,54.4240974 34.7272727,53.699047 C35.6363636,52.5208401 36.6818182,51.4332644 37.8181818,50.5269514 C37.8181818,50.5269514 37.8181818,50.5269514 37.8181818,50.5269514 C40.9090909,48.0799062 44.8181818,46.675121 48.9090909,46.675121 C51.4545455,46.675121 53.9090909,47.2189088 56.1818182,48.2158532 C59.6818182,49.7565853 62.6818182,52.4302088 64.5909091,55.9195139 C66.1363636,58.6837687 68.4545455,60.9948669 71.2272727,62.535599 C72.3636364,63.1247025 73.4090909,63.8497529 74.3181818,64.6654347 C74.3181818,64.6654347 74.3181818,64.6654347 74.3181818,64.6654347 C75.4545455,65.662379 76.5,66.7499546 77.3181818,67.9734772 C77.3636364,68.0641085 77.4545455,68.1547398 77.5,68.2453711 C79.4545455,71.1455728 80.5,74.5895623 80.5,78.1694988 C80.5454545,80.8431222 79.9545455,83.47143 78.8181818,85.8278439 Z" id="Shape"></path>
                <path d="M83.5454545,134.542169 C81.4090909,135.26722 79.2272727,135.811007 76.9545455,136.173533 C74.8636364,136.536058 72.7272727,136.71732 70.6363636,136.71732 C66.9090909,136.71732 63.0909091,136.30948 59.0454545,135.448482 C55.2272727,134.587485 51.4090909,133.635856 47.7272727,132.638912 C43.9545455,131.596652 40.1818182,130.645023 36.5454545,129.829341 C32.9090909,128.968344 29.1363636,128.515188 25.3181818,128.515188 C23.9545455,128.515188 22.5,128.605819 20.6818182,128.832397 L20.4545455,128.877713 L19.5909091,134.360907 L19.9090909,134.406222 C24.2272727,134.859379 28.4545455,135.811007 32.5454545,137.215793 C37.3181818,138.847156 41.1363636,140.206626 44.5909091,141.52078 C48.3636364,142.97088 52,144.239719 55.7272727,145.463241 C59.2727273,146.596133 62.6363636,147.185236 65.6363636,147.185236 C69.3181818,147.185236 72.8181818,146.596133 76,145.463241 C79.4090909,144.239719 82.5909091,142.381777 85.4090909,139.889416 L85.5454545,139.753469 L83.8181818,134.587485 L83.5454545,134.542169 Z" id="Path"></path>
                <path d="M26.5909091,23.2016136 L26.3181818,23.3375605 L30.4090909,29.7270674 L30.6363636,29.5911204 C36.0454545,26.3737092 42.2272727,24.6970301 48.5,24.6970301 C54.9090909,24.6970301 61.1818182,26.4190248 66.5909091,29.7270674 L66.8181818,29.8630143 L70.9090909,23.4735075 L70.6363636,23.3375605 C63.9545455,19.3044675 56.2727273,17.1746319 48.4545455,17.1746319 C40.7727273,17.1293163 33.1818182,19.2591519 26.5909091,23.2016136 Z" id="Path"></path>
                <ellipse id="Oval" cx="48.6818182" cy="6.61608511" rx="6.5" ry="6.48013816"></ellipse>
                <ellipse id="Oval" cx="28.5" cy="10.5585468" rx="6.5" ry="6.48013816"></ellipse>
                <ellipse id="Oval" cx="68.8181818" cy="10.5585468" rx="6.5" ry="6.48013816"></ellipse>
            </g>
            <g transform="translate(13.181818, 42.596712)" fill="#053536" id="Path">
                <path d="M68.6818182,9.2443929 C68.5454545,9.1537616 68.4545455,9.10844595 68.3181818,9.01781464 C66.5,7.97555466 64.8636364,6.75203207 63.5454545,5.12066862 C63.2727273,4.80345906 63.0454545,4.44093384 62.8181818,4.12372428 C62.7272727,3.94246168 62.5909091,3.76119907 62.5,3.57993647 C62.4545455,3.53462081 62.3636364,3.21741125 62.2727273,3.21741125 C60.6818182,2.76425474 57.0909091,1.81262606 50,2.80957039 C49.2272727,2.90020169 48.4545455,3.03614865 47.5909091,3.21741125 C47.5454545,3.21741125 47.5,3.21741125 47.4545455,3.26272691 C42.5454545,0.226578257 36.8181818,-0.453156515 31.6363636,1.6766791 C28.3636364,3.03614865 25.9545455,5.39256253 24.6363636,8.02087031 C27.7727273,5.57382513 31.6818182,4.16903994 35.7727273,4.16903994 C38.3181818,4.16903994 40.7727273,4.71282775 43.0454545,5.70977209 C58.7272727,4.12372428 66.6363636,8.24744857 69.0909091,9.56160246 C68.9545455,9.38033985 68.8181818,9.28970855 68.6818182,9.2443929 Z"></path>
                <path d="M7.81818182,46.4032271 C7.54545455,45.9953862 7.22727273,45.632861 7,45.2250202 C6.22727273,44.0014976 5.59090909,42.6873437 5.13636364,41.3278741 C4.5,39.5152481 4.18181818,37.5666751 4.18181818,35.5727864 C4.18181818,33.3070038 4.63636364,31.0865369 5.40909091,29.0473326 C5.36363636,28.5035448 5.31818182,28.1410196 5.31818182,28.1410196 C3.77272727,12.869645 7.68181818,4.98472166 9.09090909,2.31109823 C8.86363636,2.67362344 8.68181818,2.990833 8.5,3.35335821 C8.13636364,3.98777733 7.77272727,4.5768808 7.31818182,5.12066862 C7.22727273,5.25661557 7.13636364,5.39256253 7,5.48319383 C6.95454545,5.57382513 6.90909091,5.61914078 6.81818182,5.70977209 C5.77272727,6.93329468 4.5,7.93023901 3.09090909,8.70060508 C3,8.74592073 2.90909091,8.79123639 2.86363636,8.83655204 C2.86363636,8.83655204 2.86363636,8.88186769 2.86363636,8.88186769 C2.40909091,10.4679155 1.45454545,14.047852 2.45454545,21.1170936 C2.54545455,21.8874597 2.68181818,22.7031414 2.86363636,23.6094544 C2.86363636,23.6094544 2.86363636,23.6547701 2.86363636,23.6547701 C-0.181818182,28.5488604 -0.863636364,34.2586325 1.27272727,39.4246168 C2.68181818,42.6873437 5.22727273,45.0890732 7.81818182,46.4032271 Z"></path>
                <path d="M35.7727273,67.0671642 C33.3181818,67.0671642 30.9545455,66.568692 28.8181818,65.662379 C28.2727273,65.662379 28,65.662379 27.9545455,65.662379 L27.9545455,65.662379 C12.1818182,67.2484268 4.27272727,63.0793868 1.86363636,61.765233 C1.86363636,61.765233 1.86363636,61.765233 1.86363636,61.765233 C2.04545455,61.8558643 2.18181818,61.9464956 2.36363636,62.0824425 C2.81818182,62.3090208 3.27272727,62.5809147 3.68181818,62.8074929 C4.09090909,63.0793868 4.54545455,63.3512808 4.90909091,63.6684903 C5.81818182,64.3482251 6.63636364,65.1639068 7.31818182,66.0702198 C7.54545455,66.3874294 7.77272727,66.704639 8,67.0218485 C8.22727273,67.3843737 8.45454545,67.746899 8.63636364,68.1094242 C10.2272727,68.5625807 13.8181818,69.5142094 20.9090909,68.517265 C21.6818182,68.4266337 22.5454545,68.2906868 23.4090909,68.1094242 C23.4090909,68.1094242 23.4545455,68.1094242 23.4545455,68.1094242 C28.3636364,71.1455728 34.0909091,71.8253076 39.2727273,69.695472 C42.3636364,68.4266337 44.6363636,66.2514825 46,63.8497529 C45.9545455,63.8950686 45.8636364,63.9403842 45.8181818,63.9856999 C42.9090909,65.9342729 39.4090909,67.0671642 35.7727273,67.0671642 Z"></path>
                <path d="M68.0454545,47.6720653 C68.0454545,47.6720653 68.0454545,47.6267497 68.0454545,47.6267497 C71.0909091,42.7326593 71.7727273,37.0228873 69.6363636,31.856903 C68.4545455,28.9567013 66.4545455,26.78155 64.2272727,25.3767648 C64.2727273,25.4673961 64.3636364,25.5580274 64.4090909,25.6486587 C66.3636364,28.5488604 67.4090909,31.9928499 67.4090909,35.5727864 C67.4090909,38.2464098 66.7727273,40.8747176 65.6363636,43.2311315 C67.1363636,58.2759278 63.3636364,66.1155355 61.9090909,68.8344746 C62.0909091,68.517265 62.2727273,68.2000555 62.4545455,67.8828459 C62.6363636,67.5656363 62.8181818,67.2484268 63,66.9765329 C64.2272727,65.1185912 65.9090909,63.6231747 67.8181818,62.535599 C67.9090909,62.4902834 67.9545455,62.4449677 68.0454545,62.3996521 C68.5,60.7682886 69.4545455,57.0977209 68.4545455,50.1191105 C68.3636364,49.3487445 68.2272727,48.5330627 68.0454545,47.6720653 Z"></path>
            </g>
        </g>
    </g>
</svg>